<svg xmlns="http://www.w3.org/2000/svg" xmlns:xlink="http://www.w3.org/1999/xlink" viewBox="0 0 76.03 76.03"><defs><filter id="b" x="-0.02" y="-8230" width="76.03" height="32766" filterUnits="userSpaceOnUse" color-interpolation-filters="sRGB"><feFlood flood-color="#fff" result="bg"/><feBlend in="SourceGraphic" in2="bg"/></filter><mask id="a" x="-0.02" y="-8230" width="76.03" height="32766" maskUnits="userSpaceOnUse"><g style="filter:url(#b)"/></mask><radialGradient id="c" cx="42.02" cy="49.17" r="52.96" gradientTransform="matrix(0.71, 0.13, -0.13, 0.71, 14.73, -2.19)" gradientUnits="userSpaceOnUse"><stop offset="0" stop-color="#fff"/><stop offset="0.08" stop-color="#f6f6f6"/><stop offset="0.22" stop-color="#dedede"/><stop offset="0.4" stop-color="#b6b6b6"/><stop offset="0.6" stop-color="#7f7f7f"/><stop offset="0.83" stop-color="#393939"/><stop offset="1"/></radialGradient><filter id="e" x="-0.02" y="-0.02" width="76.03" height="76.03" filterUnits="userSpaceOnUse" color-interpolation-filters="sRGB"><feFlood flood-color="#fff" result="bg"/><feBlend in="SourceGraphic" in2="bg"/></filter><mask id="d" x="-0.02" y="-0.02" width="76.03" height="76.03" maskUnits="userSpaceOnUse"><g style="mask:url(#a);filter:url(#e)"><circle cx="37.99" cy="37.99" r="38.01" style="mix-blend-mode:multiply;fill:url(#c)"/></g></mask><radialGradient id="p" cx="42.02" cy="49.17" r="52.96" gradientTransform="matrix(0.71, 0.13, -0.13, 0.71, 14.73, -2.19)" gradientUnits="userSpaceOnUse"><stop offset="0" stop-color="#fff"/><stop offset="0.09" stop-color="#f6f6f6"/><stop offset="0.22" stop-color="#dedede"/><stop offset="0.4" stop-color="#b6b6b6"/><stop offset="0.6" stop-color="#7f7f7f"/><stop offset="0.83" stop-color="#393939"/><stop offset="1" stop-color="#010101"/></radialGradient><filter id="r" x="0.09" y="-8230" width="75.91" height="32766" filterUnits="userSpaceOnUse" color-interpolation-filters="sRGB"><feFlood flood-color="#fff" result="bg"/><feBlend in="SourceGraphic" in2="bg"/></filter><mask id="q" x="0.09" y="-8230" width="75.91" height="32766" maskUnits="userSpaceOnUse"><g style="filter:url(#r)"/></mask><radialGradient id="s" cx="19.02" cy="7.28" r="87.68" gradientTransform="translate(0 0)" gradientUnits="userSpaceOnUse"><stop offset="0"/><stop offset="0.12" stop-color="#040404"/><stop offset="0.25" stop-color="#111"/><stop offset="0.37" stop-color="#252525"/><stop offset="0.5" stop-color="#434343"/><stop offset="0.63" stop-color="#686868"/><stop offset="0.76" stop-color="#969696"/><stop offset="0.89" stop-color="#cbcbcb"/><stop offset="1" stop-color="#fff"/></radialGradient><radialGradient id="v" cx="50.52" cy="57.32" r="71.67" gradientTransform="translate(0 0)" gradientUnits="userSpaceOnUse"><stop offset="0"/><stop offset="1" stop-color="#fff"/></radialGradient><filter id="x" x="0.09" y="0.1" width="75.91" height="75.88" filterUnits="userSpaceOnUse" color-interpolation-filters="sRGB"><feFlood flood-color="#fff" result="bg"/><feBlend in="SourceGraphic" in2="bg"/></filter><mask id="w" x="0.09" y="0.1" width="75.91" height="75.88" maskUnits="userSpaceOnUse"><g style="mask:url(#q);filter:url(#x)"><rect x="0.09" y="0.1" width="75.91" height="75.88" rx="27.81" style="mix-blend-mode:multiply;fill:url(#v)"/></g></mask><radialGradient id="ad" cx="50.52" cy="57.32" r="71.67" gradientTransform="translate(0 0)" gradientUnits="userSpaceOnUse"><stop offset="0" stop-color="#010101"/><stop offset="1" stop-color="#fff"/></radialGradient><filter id="af" x="15.73" y="-8230" width="18.72" height="32766" filterUnits="userSpaceOnUse" color-interpolation-filters="sRGB"><feFlood flood-color="#fff" result="bg"/><feBlend in="SourceGraphic" in2="bg"/></filter><mask id="ae" x="15.73" y="-8230" width="18.72" height="32766" maskUnits="userSpaceOnUse"><g style="filter:url(#af)"/></mask><linearGradient id="ag" x1="6.06" y1="38.45" x2="26.62" y2="7.25" gradientTransform="matrix(1, 0, 0, 1, 0, 0)" xlink:href="#v"/><filter id="ai" x="15.73" y="4.76" width="18.72" height="9.63" filterUnits="userSpaceOnUse" color-interpolation-filters="sRGB"><feFlood flood-color="#fff" result="bg"/><feBlend in="SourceGraphic" in2="bg"/></filter><mask id="ah" x="15.73" y="4.76" width="18.72" height="9.63" maskUnits="userSpaceOnUse"><g style="mask:url(#ae);filter:url(#ai)"><path d="M17,13.18a4.23,4.23,0,0,0,4.5.93,15.65,15.65,0,0,1,5.5-1h3.31a4.18,4.18,0,0,0,4.18-4.18h0a4.18,4.18,0,0,0-4.18-4.18H27A24,24,0,0,0,18.4,6.33,4.18,4.18,0,0,0,17,13.18Z" style="mix-blend-mode:multiply;fill:url(#ag)"/></g></mask><linearGradient id="aj" x1="6.06" y1="38.45" x2="26.62" y2="7.25" gradientTransform="matrix(1, 0, 0, 1, 0, 0)" xlink:href="#ad"/><filter id="al" x="5.22" y="-8230" width="10.51" height="32766" filterUnits="userSpaceOnUse" color-interpolation-filters="sRGB"><feFlood flood-color="#fff" result="bg"/><feBlend in="SourceGraphic" in2="bg"/></filter><mask id="ak" x="5.22" y="-8230" width="10.51" height="32766" maskUnits="userSpaceOnUse"><g style="filter:url(#al)"/></mask><linearGradient id="am" x1="2.22" y1="35.92" x2="22.79" y2="4.73" gradientTransform="matrix(1, 0, 0, 1, 0, 0)" xlink:href="#v"/><filter id="ao" x="5.22" y="14.39" width="10.51" height="18.04" filterUnits="userSpaceOnUse" color-interpolation-filters="sRGB"><feFlood flood-color="#fff" result="bg"/><feBlend in="SourceGraphic" in2="bg"/></filter><mask id="an" x="5.22" y="14.39" width="10.51" height="18.04" maskUnits="userSpaceOnUse"><g style="mask:url(#ak);filter:url(#ao)"><path d="M14.49,15.62a4.16,4.16,0,0,0-6.64,1,24,24,0,0,0-2.63,11v.7A4.18,4.18,0,0,0,9.4,32.44h0a4.19,4.19,0,0,0,4.19-4.18v-.7a15.74,15.74,0,0,1,1.71-7.15,4.15,4.15,0,0,0-.81-4.79Z" style="mix-blend-mode:multiply;fill:url(#am)"/></g></mask><linearGradient id="ap" x1="2.22" y1="35.92" x2="22.79" y2="4.73" gradientTransform="matrix(1, 0, 0, 1, 0, 0)" xlink:href="#ad"/><radialGradient id="as" cx="19.02" cy="7.28" r="87.68" gradientTransform="translate(0 0)" gradientUnits="userSpaceOnUse"><stop offset="0"/><stop offset="0.08" stop-color="#090909"/><stop offset="0.22" stop-color="#212121"/><stop offset="0.4" stop-color="#494949"/><stop offset="0.6" stop-color="gray"/><stop offset="0.83" stop-color="#c6c6c6"/><stop offset="1" stop-color="#fff"/></radialGradient><radialGradient id="ax" cx="19.02" cy="7.28" r="87.68" gradientTransform="translate(0 0)" gradientUnits="userSpaceOnUse"><stop offset="0" stop-color="#010101"/><stop offset="0.12" stop-color="#050505"/><stop offset="0.25" stop-color="#121212"/><stop offset="0.37" stop-color="#262626"/><stop offset="0.5" stop-color="#444"/><stop offset="0.63" stop-color="#696969"/><stop offset="0.76" stop-color="#979797"/><stop offset="0.89" stop-color="#ccc"/><stop offset="1" stop-color="#fff"/></radialGradient><mask id="ay" x="0" y="0" width="76.03" height="76.03" maskUnits="userSpaceOnUse"><g transform="translate(0.02 0.02)"><g style="mask:url(#d)"><g style="mask:url(#d)"><g style="mask:url(#d)"><circle cx="37.99" cy="37.99" r="38.01" style="fill:url(#p)"/></g></g></g></g></mask><mask id="az" x="0.11" y="0.12" width="75.91" height="75.88" maskUnits="userSpaceOnUse"><g transform="translate(0.02 0.02)"><g style="mask:url(#w)"><g style="mask:url(#w)"><rect x="0.09" y="0.1" width="75.91" height="75.88" rx="27.81" style="fill:url(#ax)"/></g></g></g></mask><mask id="bb" x="5.25" y="4.78" width="29.23" height="27.68" maskUnits="userSpaceOnUse"><g transform="translate(0.02 0.02)"><g style="mask:url(#ah)"><path d="M17,13.18a4.23,4.23,0,0,0,4.5.93,15.65,15.65,0,0,1,5.5-1h3.31a4.18,4.18,0,0,0,4.18-4.18h0a4.18,4.18,0,0,0-4.18-4.18H27A24,24,0,0,0,18.4,6.33,4.18,4.18,0,0,0,17,13.18Z" style="fill:url(#aj)"/></g><g style="mask:url(#an)"><path d="M14.49,15.62a4.16,4.16,0,0,0-6.64,1,24,24,0,0,0-2.63,11v.7A4.18,4.18,0,0,0,9.4,32.44h0a4.19,4.19,0,0,0,4.19-4.18v-.7a15.74,15.74,0,0,1,1.71-7.15,4.15,4.15,0,0,0-.81-4.79Z" style="fill:url(#ap)"/></g></g></mask></defs><g style="mask:url(#ay)"><circle cx="38.02" cy="38.02" r="38.01" style="fill:#010101"/></g><path d="M75.87,25.41A27.81,27.81,0,0,0,48.61.12H27.48A27.81,27.81,0,0,0,.22,25.41c-.08.83-.13,1.67-.13,2.53V48.15c0,.86.05,1.7.13,2.54A27.82,27.82,0,0,0,27.48,76H48.61A27.82,27.82,0,0,0,75.87,50.69C76,49.85,76,49,76,48.15V27.94C76,27.08,76,26.24,75.87,25.41Z" transform="translate(0.02 0.02)" style="fill:#dc2e27"/><polygon points="32.45 18.13 22.41 18.13 19.3 8.58 16.2 18.13 6.16 18.13 14.28 24.03 11.18 33.57 19.3 27.67 27.43 33.57 24.32 24.03 32.45 18.13" style="fill:#f6eb16"/><polygon points="43.66 9.74 46.92 8.99 43.84 7.68 44.14 4.34 41.94 6.87 38.86 5.56 40.58 8.43 38.38 10.95 41.65 10.2 43.37 13.07 43.66 9.74" style="fill:#f6eb16"/><polygon points="52.32 19.37 55.62 19.95 53.29 17.54 54.85 14.59 51.85 16.06 49.52 13.66 49.99 16.97 46.99 18.44 50.28 19.02 50.76 22.33 52.32 19.37" style="fill:#f6eb16"/><polygon points="53.24 32.09 55.88 30.03 52.53 30.15 51.38 27 50.46 30.22 47.12 30.34 49.9 32.21 48.98 35.43 51.61 33.37 54.39 35.23 53.24 32.09" style="fill:#f6eb16"/><polygon points="43.71 41.92 46.94 41.03 43.8 39.85 43.96 36.51 41.87 39.12 38.74 37.94 40.58 40.73 38.49 43.35 41.72 42.46 43.55 45.26 43.71 41.92" style="fill:#f6eb16"/><g style="mask:url(#az)"><rect x="0.11" y="0.12" width="75.91" height="75.88" rx="27.81" style="fill:#010101"/></g><g style="mask:url(#az)"><rect x="0.11" y="0.12" width="75.91" height="75.88" rx="27.81" style="fill:#fff"/></g><g style="mask:url(#bb)"><path d="M17,13.18a4.23,4.23,0,0,0,4.5.93,15.65,15.65,0,0,1,5.5-1h3.31a4.18,4.18,0,0,0,4.18-4.18h0a4.18,4.18,0,0,0-4.18-4.18H27A24,24,0,0,0,18.4,6.33,4.18,4.18,0,0,0,17,13.18Z" transform="translate(0.02 0.02)" style="fill:#fff"/><path d="M14.49,15.62a4.16,4.16,0,0,0-6.64,1,24,24,0,0,0-2.63,11v.7A4.18,4.18,0,0,0,9.4,32.44h0a4.19,4.19,0,0,0,4.19-4.18v-.7a15.74,15.74,0,0,1,1.71-7.15,4.15,4.15,0,0,0-.81-4.79Z" transform="translate(0.02 0.02)" style="fill:#fff"/></g></svg>