<svg xmlns="http://www.w3.org/2000/svg" xmlns:xlink="http://www.w3.org/1999/xlink" viewBox="0 0 76.03 76.03"><defs><filter id="b" x="-0.02" y="-8230" width="76.03" height="32766" filterUnits="userSpaceOnUse" color-interpolation-filters="sRGB"><feFlood flood-color="#fff" result="bg"/><feBlend in="SourceGraphic" in2="bg"/></filter><mask id="a" x="-0.02" y="-8230" width="76.03" height="32766" maskUnits="userSpaceOnUse"><g style="filter:url(#b)"/></mask><radialGradient id="c" cx="42.02" cy="49.17" r="52.96" gradientTransform="matrix(0.71, 0.13, -0.13, 0.71, 14.73, -2.19)" gradientUnits="userSpaceOnUse"><stop offset="0" stop-color="#fff"/><stop offset="0.08" stop-color="#f6f6f6"/><stop offset="0.22" stop-color="#dedede"/><stop offset="0.4" stop-color="#b6b6b6"/><stop offset="0.6" stop-color="#7f7f7f"/><stop offset="0.83" stop-color="#393939"/><stop offset="1"/></radialGradient><filter id="e" x="-0.02" y="-0.02" width="76.03" height="76.03" filterUnits="userSpaceOnUse" color-interpolation-filters="sRGB"><feFlood flood-color="#fff" result="bg"/><feBlend in="SourceGraphic" in2="bg"/></filter><mask id="d" x="-0.02" y="-0.02" width="76.03" height="76.03" maskUnits="userSpaceOnUse"><g style="mask:url(#a);filter:url(#e)"><circle cx="37.99" cy="37.99" r="38.01" style="mix-blend-mode:multiply;fill:url(#c)"/></g></mask><radialGradient id="p" cx="42.02" cy="49.17" r="52.96" gradientTransform="matrix(0.71, 0.13, -0.13, 0.71, 14.73, -2.19)" gradientUnits="userSpaceOnUse"><stop offset="0" stop-color="#fff"/><stop offset="0.09" stop-color="#f6f6f6"/><stop offset="0.22" stop-color="#dedede"/><stop offset="0.4" stop-color="#b6b6b6"/><stop offset="0.6" stop-color="#7f7f7f"/><stop offset="0.83" stop-color="#393939"/><stop offset="1" stop-color="#010101"/></radialGradient><filter id="r" x="0" y="-8230" width="76.01" height="32766" filterUnits="userSpaceOnUse" color-interpolation-filters="sRGB"><feFlood flood-color="#fff" result="bg"/><feBlend in="SourceGraphic" in2="bg"/></filter><mask id="q" x="0" y="-8230" width="76.01" height="32766" maskUnits="userSpaceOnUse"><g style="filter:url(#r)"/></mask><radialGradient id="s" cx="20.02" cy="7.56" r="87.68" gradientTransform="translate(-1.09 -0.38)" gradientUnits="userSpaceOnUse"><stop offset="0"/><stop offset="0.12" stop-color="#040404"/><stop offset="0.25" stop-color="#111"/><stop offset="0.37" stop-color="#252525"/><stop offset="0.5" stop-color="#434343"/><stop offset="0.63" stop-color="#686868"/><stop offset="0.76" stop-color="#969696"/><stop offset="0.89" stop-color="#cbcbcb"/><stop offset="1" stop-color="#fff"/></radialGradient><radialGradient id="v" cx="51.52" cy="57.6" r="71.67" gradientTransform="translate(-1.09 -0.38)" gradientUnits="userSpaceOnUse"><stop offset="0"/><stop offset="1" stop-color="#fff"/></radialGradient><filter id="x" x="0" y="0" width="76.01" height="76" filterUnits="userSpaceOnUse" color-interpolation-filters="sRGB"><feFlood flood-color="#fff" result="bg"/><feBlend in="SourceGraphic" in2="bg"/></filter><mask id="w" x="0" y="0" width="76.01" height="76" maskUnits="userSpaceOnUse"><g style="mask:url(#q);filter:url(#x)"><rect width="76.01" height="76" rx="27.81" style="mix-blend-mode:multiply;fill:url(#v)"/></g></mask><radialGradient id="ad" cx="51.52" cy="57.6" r="71.67" gradientTransform="translate(-1.09 -0.38)" gradientUnits="userSpaceOnUse"><stop offset="0" stop-color="#010101"/><stop offset="1" stop-color="#fff"/></radialGradient><filter id="af" x="15.66" y="-8230" width="18.74" height="32766" filterUnits="userSpaceOnUse" color-interpolation-filters="sRGB"><feFlood flood-color="#fff" result="bg"/><feBlend in="SourceGraphic" in2="bg"/></filter><mask id="ae" x="15.66" y="-8230" width="18.74" height="32766" maskUnits="userSpaceOnUse"><g style="filter:url(#af)"/></mask><linearGradient id="ag" x1="5.97" y1="38.41" x2="26.57" y2="7.17" gradientTransform="matrix(1, 0, 0, 1, 0, 0)" xlink:href="#v"/><filter id="ai" x="15.66" y="4.67" width="18.74" height="9.65" filterUnits="userSpaceOnUse" color-interpolation-filters="sRGB"><feFlood flood-color="#fff" result="bg"/><feBlend in="SourceGraphic" in2="bg"/></filter><mask id="ah" x="15.66" y="4.67" width="18.74" height="9.65" maskUnits="userSpaceOnUse"><g style="mask:url(#ae);filter:url(#ai)"><path d="M16.89,13.1A4.26,4.26,0,0,0,21.4,14a15.47,15.47,0,0,1,5.5-1h3.32a4.19,4.19,0,0,0,4.19-4.18h0a4.19,4.19,0,0,0-4.19-4.19H26.9a23.92,23.92,0,0,0-8.57,1.57,4.18,4.18,0,0,0-1.44,6.86Z" style="mix-blend-mode:multiply;fill:url(#ag)"/></g></mask><linearGradient id="aj" x1="5.97" y1="38.41" x2="26.57" y2="7.17" gradientTransform="matrix(1, 0, 0, 1, 0, 0)" xlink:href="#ad"/><filter id="al" x="5.14" y="-8230" width="10.53" height="32766" filterUnits="userSpaceOnUse" color-interpolation-filters="sRGB"><feFlood flood-color="#fff" result="bg"/><feBlend in="SourceGraphic" in2="bg"/></filter><mask id="ak" x="5.14" y="-8230" width="10.53" height="32766" maskUnits="userSpaceOnUse"><g style="filter:url(#al)"/></mask><linearGradient id="am" x1="2.14" y1="35.87" x2="22.73" y2="4.64" gradientTransform="matrix(1, 0, 0, 1, 0, 0)" xlink:href="#v"/><filter id="ao" x="5.14" y="14.31" width="10.53" height="18.07" filterUnits="userSpaceOnUse" color-interpolation-filters="sRGB"><feFlood flood-color="#fff" result="bg"/><feBlend in="SourceGraphic" in2="bg"/></filter><mask id="an" x="5.14" y="14.31" width="10.53" height="18.07" maskUnits="userSpaceOnUse"><g style="mask:url(#ak);filter:url(#ao)"><path d="M14.42,15.55a4.17,4.17,0,0,0-6.65,1,24.09,24.09,0,0,0-2.63,11v.7a4.19,4.19,0,0,0,4.19,4.19h0a4.19,4.19,0,0,0,4.18-4.19v-.7a15.66,15.66,0,0,1,1.72-7.16,4.15,4.15,0,0,0-.81-4.79Z" style="mix-blend-mode:multiply;fill:url(#am)"/></g></mask><linearGradient id="ap" x1="2.14" y1="35.87" x2="22.73" y2="4.64" gradientTransform="matrix(1, 0, 0, 1, 0, 0)" xlink:href="#ad"/><radialGradient id="as" cx="20.02" cy="7.56" r="87.68" gradientTransform="translate(-1.09 -0.38)" gradientUnits="userSpaceOnUse"><stop offset="0"/><stop offset="0.08" stop-color="#090909"/><stop offset="0.22" stop-color="#212121"/><stop offset="0.4" stop-color="#494949"/><stop offset="0.6" stop-color="gray"/><stop offset="0.83" stop-color="#c6c6c6"/><stop offset="1" stop-color="#fff"/></radialGradient><radialGradient id="ax" cx="20.02" cy="7.56" r="87.68" gradientTransform="translate(-1.09 -0.38)" gradientUnits="userSpaceOnUse"><stop offset="0" stop-color="#010101"/><stop offset="0.12" stop-color="#050505"/><stop offset="0.25" stop-color="#121212"/><stop offset="0.37" stop-color="#262626"/><stop offset="0.5" stop-color="#444"/><stop offset="0.63" stop-color="#696969"/><stop offset="0.76" stop-color="#979797"/><stop offset="0.89" stop-color="#ccc"/><stop offset="1" stop-color="#fff"/></radialGradient><mask id="ay" x="0" y="0" width="76.03" height="76.03" maskUnits="userSpaceOnUse"><g transform="translate(0.02 0.02)"><g style="mask:url(#d)"><g style="mask:url(#d)"><g style="mask:url(#d)"><circle cx="37.99" cy="37.99" r="38.01" style="fill:url(#p)"/></g></g></g></g></mask><mask id="az" x="0.02" y="0.02" width="76.01" height="76" maskUnits="userSpaceOnUse"><g transform="translate(0.02 0.02)"><g style="mask:url(#w)"><g style="mask:url(#w)"><rect width="76.01" height="76" rx="27.81" style="fill:url(#ax)"/></g></g></g></mask><mask id="bb" x="5.16" y="4.69" width="29.27" height="27.72" maskUnits="userSpaceOnUse"><g transform="translate(0.02 0.02)"><g style="mask:url(#ah)"><path d="M16.89,13.1A4.26,4.26,0,0,0,21.4,14a15.47,15.47,0,0,1,5.5-1h3.32a4.19,4.19,0,0,0,4.19-4.18h0a4.19,4.19,0,0,0-4.19-4.19H26.9a23.92,23.92,0,0,0-8.57,1.57,4.18,4.18,0,0,0-1.44,6.86Z" style="fill:url(#aj)"/></g><g style="mask:url(#an)"><path d="M14.42,15.55a4.17,4.17,0,0,0-6.65,1,24.09,24.09,0,0,0-2.63,11v.7a4.19,4.19,0,0,0,4.19,4.19h0a4.19,4.19,0,0,0,4.18-4.19v-.7a15.66,15.66,0,0,1,1.72-7.16,4.15,4.15,0,0,0-.81-4.79Z" style="fill:url(#ap)"/></g></g></mask></defs><g style="mask:url(#ay)"><circle cx="38.02" cy="38.02" r="38.01" style="fill:#010101"/></g><path d="M.13,25.32C.05,26.16,0,27,0,27.86v5.9H19.08V1.42a26.39,26.39,0,0,0-4.4,1.89A27.87,27.87,0,0,0,.13,25.32Z" transform="translate(0.02 0.02)" style="fill:#ed1c29"/><path d="M75.87,25.32A27.86,27.86,0,0,0,48.58,0H27.87V33.76H76v-5.9C76,27,76,26.16,75.87,25.32Z" transform="translate(0.02 0.02)" style="fill:#ed1c29"/><path d="M27.87,76H48.58A27.88,27.88,0,0,0,75.87,50.67C76,49.83,76,49,76,48.12V42.57H27.87Z" transform="translate(0.02 0.02)" style="fill:#ed1c29"/><path d="M0,47v1.15c0,.86.05,1.71.13,2.55a27.89,27.89,0,0,0,14.55,22,28.17,28.17,0,0,0,4.4,1.89v-32H0Z" transform="translate(0.02 0.02)" style="fill:#ed1c29"/><path d="M27.87,0h-.45a27.44,27.44,0,0,0-8.34,1.44V33.76H0v8.81H19.08v32A28.06,28.06,0,0,0,27.42,76h.45V42.57H76V33.76H27.87Z" transform="translate(0.02 0.02)" style="fill:#fff"/><g style="mask:url(#az)"><rect x="0.02" y="0.02" width="76.01" height="76" rx="27.81" style="fill:#010101"/></g><g style="mask:url(#az)"><rect x="0.02" y="0.02" width="76.01" height="76" rx="27.81" style="fill:#fff"/></g><g style="mask:url(#bb)"><path d="M16.89,13.1A4.26,4.26,0,0,0,21.4,14a15.47,15.47,0,0,1,5.5-1h3.32a4.19,4.19,0,0,0,4.19-4.18h0a4.19,4.19,0,0,0-4.19-4.19H26.9a23.92,23.92,0,0,0-8.57,1.57,4.18,4.18,0,0,0-1.44,6.86Z" transform="translate(0.02 0.02)" style="fill:#fff"/><path d="M14.42,15.55a4.17,4.17,0,0,0-6.65,1,24.09,24.09,0,0,0-2.63,11v.7a4.19,4.19,0,0,0,4.19,4.19h0a4.19,4.19,0,0,0,4.18-4.19v-.7a15.66,15.66,0,0,1,1.72-7.16,4.15,4.15,0,0,0-.81-4.79Z" transform="translate(0.02 0.02)" style="fill:#fff"/></g></svg>