<svg xmlns="http://www.w3.org/2000/svg" xmlns:xlink="http://www.w3.org/1999/xlink" viewBox="0 0 76.03 76.03"><defs><filter id="b" x="-0.02" y="-8230" width="76.03" height="32766" filterUnits="userSpaceOnUse" color-interpolation-filters="sRGB"><feFlood flood-color="#fff" result="bg"/><feBlend in="SourceGraphic" in2="bg"/></filter><mask id="a" x="-0.02" y="-8230" width="76.03" height="32766" maskUnits="userSpaceOnUse"><g style="filter:url(#b)"/></mask><radialGradient id="c" cx="42.02" cy="49.17" r="52.96" gradientTransform="matrix(0.71, 0.13, -0.13, 0.71, 14.73, -2.19)" gradientUnits="userSpaceOnUse"><stop offset="0" stop-color="#fff"/><stop offset="0.08" stop-color="#f6f6f6"/><stop offset="0.22" stop-color="#dedede"/><stop offset="0.4" stop-color="#b6b6b6"/><stop offset="0.6" stop-color="#7f7f7f"/><stop offset="0.83" stop-color="#393939"/><stop offset="1"/></radialGradient><filter id="e" x="-0.02" y="-0.02" width="76.03" height="76.03" filterUnits="userSpaceOnUse" color-interpolation-filters="sRGB"><feFlood flood-color="#fff" result="bg"/><feBlend in="SourceGraphic" in2="bg"/></filter><mask id="d" x="-0.02" y="-0.02" width="76.03" height="76.03" maskUnits="userSpaceOnUse"><g style="mask:url(#a);filter:url(#e)"><circle cx="37.99" cy="37.99" r="38.01" style="mix-blend-mode:multiply;fill:url(#c)"/></g></mask><radialGradient id="p" cx="42.02" cy="49.17" r="52.96" gradientTransform="matrix(0.71, 0.13, -0.13, 0.71, 14.73, -2.19)" gradientUnits="userSpaceOnUse"><stop offset="0" stop-color="#fff"/><stop offset="0.09" stop-color="#f6f6f6"/><stop offset="0.22" stop-color="#dedede"/><stop offset="0.4" stop-color="#b6b6b6"/><stop offset="0.6" stop-color="#7f7f7f"/><stop offset="0.83" stop-color="#393939"/><stop offset="1" stop-color="#010101"/></radialGradient><filter id="r" x="0.09" y="-8230" width="75.91" height="32766" filterUnits="userSpaceOnUse" color-interpolation-filters="sRGB"><feFlood flood-color="#fff" result="bg"/><feBlend in="SourceGraphic" in2="bg"/></filter><mask id="q" x="0.09" y="-8230" width="75.91" height="32766" maskUnits="userSpaceOnUse"><g style="filter:url(#r)"/></mask><radialGradient id="s" cx="19.02" cy="7.28" r="87.68" gradientTransform="translate(0 0)" gradientUnits="userSpaceOnUse"><stop offset="0"/><stop offset="0.12" stop-color="#040404"/><stop offset="0.25" stop-color="#111"/><stop offset="0.37" stop-color="#252525"/><stop offset="0.5" stop-color="#434343"/><stop offset="0.63" stop-color="#686868"/><stop offset="0.76" stop-color="#969696"/><stop offset="0.89" stop-color="#cbcbcb"/><stop offset="1" stop-color="#fff"/></radialGradient><radialGradient id="v" cx="50.52" cy="57.32" r="71.67" gradientTransform="translate(0 0)" gradientUnits="userSpaceOnUse"><stop offset="0"/><stop offset="1" stop-color="#fff"/></radialGradient><filter id="x" x="0.09" y="0.1" width="75.91" height="75.91" filterUnits="userSpaceOnUse" color-interpolation-filters="sRGB"><feFlood flood-color="#fff" result="bg"/><feBlend in="SourceGraphic" in2="bg"/></filter><mask id="w" x="0.09" y="0.1" width="75.91" height="75.91" maskUnits="userSpaceOnUse"><g style="mask:url(#q);filter:url(#x)"><rect x="0.09" y="0.1" width="75.91" height="75.91" rx="27.81" style="mix-blend-mode:multiply;fill:url(#v)"/></g></mask><radialGradient id="ad" cx="50.52" cy="57.32" r="71.67" gradientTransform="translate(0 0)" gradientUnits="userSpaceOnUse"><stop offset="0" stop-color="#010101"/><stop offset="1" stop-color="#fff"/></radialGradient><filter id="af" x="15.73" y="-8230" width="18.72" height="32766" filterUnits="userSpaceOnUse" color-interpolation-filters="sRGB"><feFlood flood-color="#fff" result="bg"/><feBlend in="SourceGraphic" in2="bg"/></filter><mask id="ae" x="15.73" y="-8230" width="18.72" height="32766" maskUnits="userSpaceOnUse"><g style="filter:url(#af)"/></mask><linearGradient id="ag" x1="6.05" y1="38.46" x2="26.62" y2="7.26" gradientTransform="matrix(1, 0, 0, 1, 0, 0)" xlink:href="#v"/><filter id="ai" x="15.73" y="4.76" width="18.72" height="9.64" filterUnits="userSpaceOnUse" color-interpolation-filters="sRGB"><feFlood flood-color="#fff" result="bg"/><feBlend in="SourceGraphic" in2="bg"/></filter><mask id="ah" x="15.73" y="4.76" width="18.72" height="9.64" maskUnits="userSpaceOnUse"><g style="mask:url(#ae);filter:url(#ai)"><path d="M17,13.19a4.27,4.27,0,0,0,4.5.93,15.65,15.65,0,0,1,5.5-1h3.31a4.19,4.19,0,0,0,4.18-4.19h0a4.18,4.18,0,0,0-4.18-4.18H27A24,24,0,0,0,18.4,6.33,4.18,4.18,0,0,0,17,13.19Z" style="mix-blend-mode:multiply;fill:url(#ag)"/></g></mask><linearGradient id="aj" x1="6.05" y1="38.46" x2="26.62" y2="7.26" gradientTransform="matrix(1, 0, 0, 1, 0, 0)" xlink:href="#ad"/><filter id="al" x="5.22" y="-8230" width="10.51" height="32766" filterUnits="userSpaceOnUse" color-interpolation-filters="sRGB"><feFlood flood-color="#fff" result="bg"/><feBlend in="SourceGraphic" in2="bg"/></filter><mask id="ak" x="5.22" y="-8230" width="10.51" height="32766" maskUnits="userSpaceOnUse"><g style="filter:url(#al)"/></mask><linearGradient id="am" x1="2.22" y1="35.93" x2="22.79" y2="4.73" gradientTransform="matrix(1, 0, 0, 1, 0, 0)" xlink:href="#v"/><filter id="ao" x="5.22" y="14.4" width="10.51" height="18.05" filterUnits="userSpaceOnUse" color-interpolation-filters="sRGB"><feFlood flood-color="#fff" result="bg"/><feBlend in="SourceGraphic" in2="bg"/></filter><mask id="an" x="5.22" y="14.4" width="10.51" height="18.05" maskUnits="userSpaceOnUse"><g style="mask:url(#ak);filter:url(#ao)"><path d="M14.49,15.63a4.17,4.17,0,0,0-6.64,1,24,24,0,0,0-2.63,11v.69A4.19,4.19,0,0,0,9.4,32.45h0a4.2,4.2,0,0,0,4.19-4.19v-.69a15.78,15.78,0,0,1,1.71-7.16,4.13,4.13,0,0,0-.81-4.78Z" style="mix-blend-mode:multiply;fill:url(#am)"/></g></mask><linearGradient id="ap" x1="2.22" y1="35.93" x2="22.79" y2="4.73" gradientTransform="matrix(1, 0, 0, 1, 0, 0)" xlink:href="#ad"/><radialGradient id="as" cx="19.02" cy="7.28" r="87.68" gradientTransform="translate(0 0)" gradientUnits="userSpaceOnUse"><stop offset="0"/><stop offset="0.08" stop-color="#090909"/><stop offset="0.22" stop-color="#212121"/><stop offset="0.4" stop-color="#494949"/><stop offset="0.6" stop-color="gray"/><stop offset="0.83" stop-color="#c6c6c6"/><stop offset="1" stop-color="#fff"/></radialGradient><radialGradient id="ax" cx="19.02" cy="7.28" r="87.68" gradientTransform="translate(0 0)" gradientUnits="userSpaceOnUse"><stop offset="0" stop-color="#010101"/><stop offset="0.12" stop-color="#050505"/><stop offset="0.25" stop-color="#121212"/><stop offset="0.37" stop-color="#262626"/><stop offset="0.5" stop-color="#444"/><stop offset="0.63" stop-color="#696969"/><stop offset="0.76" stop-color="#979797"/><stop offset="0.89" stop-color="#ccc"/><stop offset="1" stop-color="#fff"/></radialGradient><mask id="ay" x="0" y="0" width="76.03" height="76.03" maskUnits="userSpaceOnUse"><g transform="translate(0.02 0.02)"><g style="mask:url(#d)"><g style="mask:url(#d)"><g style="mask:url(#d)"><circle cx="37.99" cy="37.99" r="38.01" style="fill:url(#p)"/></g></g></g></g></mask><mask id="az" x="0.11" y="0.12" width="75.91" height="75.91" maskUnits="userSpaceOnUse"><g transform="translate(0.02 0.02)"><g style="mask:url(#w)"><g style="mask:url(#w)"><rect x="0.09" y="0.1" width="75.91" height="75.91" rx="27.81" style="fill:url(#ax)"/></g></g></g></mask><mask id="bb" x="5.24" y="4.79" width="29.23" height="27.68" maskUnits="userSpaceOnUse"><g transform="translate(0.02 0.02)"><g style="mask:url(#ah)"><path d="M17,13.19a4.27,4.27,0,0,0,4.5.93,15.65,15.65,0,0,1,5.5-1h3.31a4.19,4.19,0,0,0,4.18-4.19h0a4.18,4.18,0,0,0-4.18-4.18H27A24,24,0,0,0,18.4,6.33,4.18,4.18,0,0,0,17,13.19Z" style="fill:url(#aj)"/></g><g style="mask:url(#an)"><path d="M14.49,15.63a4.17,4.17,0,0,0-6.64,1,24,24,0,0,0-2.63,11v.69A4.19,4.19,0,0,0,9.4,32.45h0a4.2,4.2,0,0,0,4.19-4.19v-.69a15.78,15.78,0,0,1,1.71-7.16,4.13,4.13,0,0,0-.81-4.78Z" style="fill:url(#ap)"/></g></g></mask></defs><g style="mask:url(#ay)"><circle cx="38.02" cy="38.02" r="38.01" style="fill:#010101"/></g><path d="M27.48,76H48.61a27.69,27.69,0,0,0,18.68-7.62H8.8A27.69,27.69,0,0,0,27.48,76Z" transform="translate(0.02 0.02)" style="fill:#2a2773"/><path d="M8.8,68.36H67.29a27.82,27.82,0,0,0,6.11-8.53H2.69A27.82,27.82,0,0,0,8.8,68.36Z" transform="translate(0.02 0.02)" style="fill:#fff"/><path d="M2.69,59.83H73.4a27.44,27.44,0,0,0,2.39-8.53H.3A27.44,27.44,0,0,0,2.69,59.83Z" transform="translate(0.02 0.02)" style="fill:#2a2773"/><path d="M42.66,34.23H76V27.94c0-.76,0-1.5-.11-2.25H42.66Z" transform="translate(0.02 0.02)" style="fill:#fff"/><path d="M42.66,17.16H73.79a27.64,27.64,0,0,0-5.65-8.54H42.66Z" transform="translate(0.02 0.02)" style="fill:#fff"/><path d="M42.66,25.69H75.89c0-.09,0-.18,0-.28a27.49,27.49,0,0,0-2.08-8.25H42.66Z" transform="translate(0.02 0.02)" style="fill:#2a2773"/><path d="M.2,25.69c-.06.75-.11,1.49-.11,2.25V42.76h17V25.69Z" transform="translate(0.02 0.02)" style="fill:#2a2773"/><polygon points="42.69 34.25 42.69 25.71 25.61 25.71 25.61 34.25 25.61 42.79 42.69 42.79 76.02 42.79 76.02 34.25 42.69 34.25" style="fill:#2a2773"/><path d="M48.61.12H27.48c-.64,0-1.26.07-1.89.12V17.16H42.66V8.62H68.14A27.74,27.74,0,0,0,48.61.12Z" transform="translate(0.02 0.02)" style="fill:#2a2773"/><path d="M8,8.62A27.64,27.64,0,0,0,2.3,17.16H17.07V2.33A27.83,27.83,0,0,0,8,8.62Z" transform="translate(0.02 0.02)" style="fill:#2a2773"/><path d="M42.66,42.76H25.59V25.69H42.66V17.16H25.59V.24a27.8,27.8,0,0,0-8.52,2.09V17.16H2.3A27.49,27.49,0,0,0,.22,25.41c0,.1,0,.19,0,.28H17.07V42.76H.09v5.4c0,.86.05,1.71.13,2.55,0,.2.06.39.08.59H75.79c0-.2.06-.39.08-.59C76,49.87,76,49,76,48.16v-5.4Z" transform="translate(0.02 0.02)" style="fill:#fff"/><g style="mask:url(#az)"><rect x="0.11" y="0.12" width="75.91" height="75.91" rx="27.81" style="fill:#010101"/></g><g style="mask:url(#az)"><rect x="0.11" y="0.12" width="75.91" height="75.91" rx="27.81" style="fill:#fff"/></g><g style="mask:url(#bb)"><path d="M17,13.19a4.27,4.27,0,0,0,4.5.93,15.65,15.65,0,0,1,5.5-1h3.31a4.19,4.19,0,0,0,4.18-4.19h0a4.18,4.18,0,0,0-4.18-4.18H27A24,24,0,0,0,18.4,6.33,4.18,4.18,0,0,0,17,13.19Z" transform="translate(0.02 0.02)" style="fill:#fff"/><path d="M14.49,15.63a4.17,4.17,0,0,0-6.64,1,24,24,0,0,0-2.63,11v.69A4.19,4.19,0,0,0,9.4,32.45h0a4.2,4.2,0,0,0,4.19-4.19v-.69a15.78,15.78,0,0,1,1.71-7.16,4.13,4.13,0,0,0-.81-4.78Z" transform="translate(0.02 0.02)" style="fill:#fff"/></g></svg>